<svg width="24" height="24" viewBox="0 0 24 24" xmlns="http://www.w3.org/2000/svg">
  <path d="M22.56 12.25C22.56 11.47 22.49 10.72 22.36 10H12V14.26H17.92C17.66 15.62 16.88 16.78 15.71 17.57V20.34H19.28C21.36 18.42 22.56 15.6 22.56 12.25Z" 
        fill="#4285F4"/>
  <path d="M12 23C15.24 23 17.95 21.85 19.28 20.34L15.71 17.57C14.73 18.23 13.48 18.61 12 18.61C8.87 18.61 6.22 16.59 5.27 13.8H1.64V16.67C2.98 19.28 7.26 23 12 23Z" 
        fill="#34A853"/>
  <path d="M5.27 13.8C5.03 13.13 4.91 12.42 4.91 11.69C4.91 10.96 5.03 10.25 5.27 9.58V6.71H1.64C0.9 8.11 0.5 9.69 0.5 11.35C0.5 13.01 0.9 14.59 1.64 15.99L5.27 13.8Z" 
        fill="#FBBC05"/>
  <path d="M12 5.38C13.62 5.38 15.06 5.94 16.21 7.02L19.35 3.88C17.95 2.59 15.24 1.5 12 1.5C7.26 1.5 2.98 5.22 1.64 7.83L5.27 10.7C6.22 7.91 8.87 5.38 12 5.38Z" 
        fill="#EA4335"/>
</svg>
