<svg width="24" height="24" viewBox="0 0 24 24" xmlns="http://www.w3.org/2000/svg">
  <defs>
    <filter id="settingsNavGlow">
      <feGaussianBlur stdDeviation="2" result="coloredBlur"/>
      <feMerge> 
        <feMergeNode in="coloredBlur"/>
        <feMergeNode in="SourceGraphic"/>
      </feMerge>
    </filter>
  </defs>
  <path d="M19.14 12.94C19.18 12.64 19.2 12.33 19.2 12C19.2 11.67 19.18 11.36 19.14 11.06L21.16 9.48C21.34 9.34 21.39 9.07 21.28 8.87L19.36 5.35C19.24 5.14 18.99 5.04 18.77 5.09L16.38 5.64C15.88 5.23 15.35 4.86 14.76 4.59L14.4 2.08C14.36 1.84 14.16 1.67 13.92 1.67H10.08C9.84 1.67 9.64 1.84 9.6 2.08L9.24 4.59C8.65 4.86 8.12 5.23 7.62 5.64L5.23 5.09C5.01 5.04 4.76 5.14 4.64 5.35L2.72 8.87C2.61 9.07 2.66 9.34 2.84 9.48L4.86 11.06C4.82 11.36 4.8 11.67 4.8 12C4.8 12.33 4.82 12.64 4.86 12.94L2.84 14.52C2.66 14.66 2.61 14.93 2.72 15.13L4.64 18.65C4.76 18.86 5.01 18.96 5.23 18.91L7.62 18.36C8.12 18.77 8.65 19.14 9.24 19.41L9.6 21.92C9.64 22.16 9.84 22.33 10.08 22.33H13.92C14.16 22.33 14.36 22.16 14.4 21.92L14.76 19.41C15.35 19.14 15.88 18.77 16.38 18.36L18.77 18.91C18.99 18.96 19.24 18.86 19.36 18.65L21.28 15.13C21.39 14.93 21.34 14.66 21.16 14.52L19.14 12.94ZM12 15.6C10.02 15.6 8.4 13.98 8.4 12C8.4 10.02 10.02 8.4 12 8.4C13.98 8.4 15.6 10.02 15.6 12C15.6 13.98 13.98 15.6 12 15.6Z" 
        fill="none" 
        stroke="#FFFFFF" 
        stroke-width="2" 
        filter="url(#settingsNavGlow)"/>
</svg>
