<svg width="32" height="32" viewBox="0 0 32 32" xmlns="http://www.w3.org/2000/svg">
  <defs>
    <filter id="treeGlow">
      <feGaussianBlur stdDeviation="3" result="coloredBlur"/>
      <feMerge> 
        <feMergeNode in="coloredBlur"/>
        <feMergeNode in="SourceGraphic"/>
      </feMerge>
    </filter>
  </defs>
  <path d="M16 4C18 4 20 6 20 8C20 10 18 12 16 12C14 12 12 10 12 8C12 6 14 4 16 4Z" 
        fill="#32CD32" 
        filter="url(#treeGlow)"/>
  <path d="M16 8C20 8 24 12 24 16C24 20 20 24 16 24C12 24 8 20 8 16C8 12 12 8 16 8Z" 
        fill="#228B22" 
        opacity="0.8"/>
  <rect x="14" y="24" width="4" height="4" fill="#8B4513"/>
  <circle cx="16" cy="16" r="2" fill="#90EE90" opacity="0.6"/>
</svg>
